<svg width="32" height="32" viewBox="0 0 32 32" fill="none" xmlns="http://www.w3.org/2000/svg">
<g clip-path="url(#clip0_49_2)">
<path d="M32 0H0V32H32V0Z" fill="#D4AF37"/>
<path d="M16.928 18.696H21.904V19.848H16.928V18.696ZM16.496 8.64797H22.448V21.048H21.232V9.79998H17.664V21.16H16.496V8.64797ZM11.952 8.50397H13.136V21.848H11.952V8.50397ZM8.8 11.896H15.936V13.016H8.8V11.896ZM11.888 12.296L12.736 12.584C12.544 13.2133 12.3147 13.8586 12.048 14.52C11.7813 15.1706 11.4827 15.8106 11.152 16.44C10.832 17.0693 10.496 17.656 10.144 18.2C9.792 18.7333 9.43467 19.192 9.072 19.576C9.008 19.4053 8.90667 19.2133 8.768 19C8.64 18.7866 8.52267 18.6053 8.416 18.456C8.75733 18.1146 9.09867 17.7093 9.44 17.24C9.78133 16.76 10.1067 16.2426 10.416 15.688C10.7253 15.1333 11.0027 14.568 11.248 13.992C11.504 13.4053 11.7173 12.84 11.888 12.296ZM15.024 7.30398L15.824 8.24798C15.2587 8.46131 14.608 8.65864 13.872 8.83998C13.136 9.01064 12.3733 9.15998 11.584 9.28798C10.7947 9.41597 10.032 9.52264 9.296 9.60798C9.27467 9.46931 9.22667 9.30931 9.152 9.12798C9.088 8.94664 9.024 8.78664 8.96 8.64797C9.664 8.55197 10.3947 8.43998 11.152 8.31198C11.9093 8.17331 12.624 8.01864 13.296 7.84797C13.9787 7.67731 14.5547 7.49598 15.024 7.30398ZM13.056 13.336C13.152 13.432 13.296 13.5866 13.488 13.8C13.68 14.0133 13.8933 14.2533 14.128 14.52C14.3627 14.7866 14.592 15.0533 14.816 15.32C15.0507 15.5866 15.2587 15.832 15.44 16.056C15.6213 16.2693 15.7493 16.4293 15.824 16.536L15.088 17.528C14.96 17.3146 14.7787 17.0426 14.544 16.712C14.3093 16.3813 14.0587 16.0346 13.792 15.672C13.5253 15.3093 13.2693 14.9733 13.024 14.664C12.7787 14.344 12.5867 14.0933 12.448 13.912L13.056 13.336Z" fill="black"/>
</g>
<defs>
<clipPath id="clip0_49_2">
<rect width="32" height="32" fill="white"/>
</clipPath>
</defs>
</svg>
